# xmcd CD database file
#
# Track frame offsets:
#	150
#	15299
#	29115
#	47413
#	58807
#	71669
#	83598
#	93780
#	110673
#	127517
#	143164
#	152459
#	160608
#	170895
#	185957
#	201607
#	219525
#	227979
#	236258
#	252484
#	262774
#
# Disc length: 3837 seconds
#
# Revision: 0
# Processed by: cddbd v1.5.2PL0 Copyright (c) Steve Scherf et al.
# Submitted via: CDex 1.79
#
DISCID=1f0efb15
DTITLE=KennHall and The New Santa Fe Ramblers - # 11 on the Jukebox
DYEAR=2006
DGENRE=Blues
TTITLE0=Number 11 on the Jukebox
TTITLE1=Jambalaya
TTITLE2=Gypsy Blossom Special
TTITLE3=Dem Blues
TTITLE4=Zitka
TTITLE5=Heel and Toe Polka
TTITLE6=Cielito Lindo
TTITLE7=New River Train
TTITLE8=Peeler's Creel/Peeler's Jacket
TTITLE9=Little Luly
TTITLE10=Clinch Mountain Home
TTITLE11=John Brown's Dream
TTITLE12=Beer Barrel Polka
TTITLE13=Little Beggarman
TTITLE14=In the Jailhouse Now
TTITLE15=Leaving Home
TTITLE16=All Around the Water Tank
TTITLE17=Bucking Mule
TTITLE18=White House Blues
TTITLE19=Irish Washerwoman
TTITLE20=Soldier's Joy
EXTD=YEAR: 2006
EXTT0=
EXTT1=
EXTT2=
EXTT3=
EXTT4=
EXTT5=
EXTT6=
EXTT7=
EXTT8=
EXTT9=
EXTT10=
EXTT11=
EXTT12=
EXTT13=
EXTT14=
EXTT15=
EXTT16=
EXTT17=
EXTT18=
EXTT19=
EXTT20=
PLAYORDER=
